<svg xmlns="http://www.w3.org/2000/svg" width="1200" height="630" viewBox="0 0 1200 630">
  <defs>
    <linearGradient id="bg" x1="0" y1="0" x2="1" y2="1">
      <stop offset="0%" stop-color="#f7f3ee" />
      <stop offset="50%" stop-color="#eef6f8" />
      <stop offset="100%" stop-color="#fef8ea" />
    </linearGradient>
    <linearGradient id="card" x1="0" y1="0" x2="0" y2="1">
      <stop offset="0%" stop-color="#ffffff" />
      <stop offset="100%" stop-color="#f8fafc" />
    </linearGradient>
  </defs>
  <rect width="1200" height="630" fill="url(#bg)" />
  <rect x="120" y="120" width="960" height="390" rx="28" fill="url(#card)" stroke="#d9e2ec" />
  <rect x="170" y="170" width="84" height="84" rx="18" fill="#1F6F84" />
  <path d="M200 194c0-11.05 8.95-20 20-20s20 8.95 20 20v30c0 10.49-8.51 19-19 19-6 0-11-4.02-11-9v-5c0-2.76-2.24-5-5-5-3.87 0-7-3.13-7-7v-23z" fill="#fff"/>
  <circle cx="206" cy="194" r="4" fill="#1F6F84" />
  <circle cx="234" cy="194" r="4" fill="#1F6F84" />
  <text x="280" y="220" font-family="'Plus Jakarta Sans', sans-serif" font-size="40" fill="#1e293b">Clinic Manager Dashboard</text>
  <text x="280" y="260" font-family="'Plus Jakarta Sans', sans-serif" font-size="20" fill="#64748b">Secure internal tool for clients, payments, and procedures</text>
  <rect x="200" y="310" width="800" height="10" rx="5" fill="#e2e8f0" />
  <rect x="200" y="340" width="640" height="10" rx="5" fill="#e2e8f0" />
  <rect x="200" y="370" width="720" height="10" rx="5" fill="#e2e8f0" />
</svg>